<svg xmlns="http://www.w3.org/2000/svg" viewBox="0 0 320 180">
  <defs>
    <linearGradient id="bg" x1="0%" y1="0%" x2="100%" y2="100%">
      <stop offset="0%" style="stop-color:#667eea"/>
      <stop offset="100%" style="stop-color:#764ba2"/>
    </linearGradient>
  </defs>
  <rect width="320" height="180" fill="url(#bg)"/>

  <!-- Layer 0 (bottom) -->
  <rect x="35" y="38" width="22" height="30" rx="3" fill="white" opacity="0.7"/>
  <rect x="60" y="38" width="22" height="30" rx="3" fill="white" opacity="0.7"/>
  <rect x="85" y="38" width="22" height="30" rx="3" fill="white" opacity="0.7"/>
  <rect x="110" y="38" width="22" height="30" rx="3" fill="white" opacity="0.7"/>
  <rect x="35" y="72" width="22" height="30" rx="3" fill="white" opacity="0.7"/>
  <rect x="60" y="72" width="22" height="30" rx="3" fill="white" opacity="0.7"/>
  <rect x="85" y="72" width="22" height="30" rx="3" fill="white" opacity="0.7"/>
  <rect x="110" y="72" width="22" height="30" rx="3" fill="white" opacity="0.7"/>

  <!-- Layer 1 (middle, offset) -->
  <rect x="43" y="31" width="22" height="30" rx="3" fill="white" opacity="0.85"/>
  <rect x="68" y="31" width="22" height="30" rx="3" fill="white" opacity="0.85"/>
  <rect x="93" y="31" width="22" height="30" rx="3" fill="white" opacity="0.85"/>
  <rect x="118" y="31" width="22" height="30" rx="3" fill="white" opacity="0.85"/>
  <rect x="43" y="65" width="22" height="30" rx="3" fill="white" opacity="0.85"/>
  <rect x="68" y="65" width="22" height="30" rx="3" fill="white" opacity="0.85"/>
  <rect x="93" y="65" width="22" height="30" rx="3" fill="white" opacity="0.85"/>
  <rect x="118" y="65" width="22" height="30" rx="3" fill="white" opacity="0.85"/>

  <!-- Layer 2 (top, offset) -->
  <rect x="51" y="24" width="22" height="30" rx="3" fill="white" opacity="1"/>
  <rect x="76" y="24" width="22" height="30" rx="3" fill="white" opacity="1"/>
  <rect x="101" y="24" width="22" height="30" rx="3" fill="white" opacity="1"/>
  <rect x="126" y="24" width="22" height="30" rx="3" fill="white" opacity="1"/>
  <rect x="51" y="58" width="22" height="30" rx="3" fill="white" opacity="1"/>
  <rect x="76" y="58" width="22" height="30" rx="3" fill="white" opacity="1"/>
  <rect x="101" y="58" width="22" height="30" rx="3" fill="white" opacity="1"/>
  <rect x="126" y="58" width="22" height="30" rx="3" fill="white" opacity="1"/>

  <!-- Emoji labels on top cards -->
  <text x="62" y="45" font-size="12" text-anchor="middle">🍎</text>
  <text x="87" y="45" font-size="12" text-anchor="middle">🍌</text>
  <text x="112" y="45" font-size="12" text-anchor="middle">🍇</text>
  <text x="137" y="45" font-size="12" text-anchor="middle">🍓</text>
  <text x="62" y="79" font-size="12" text-anchor="middle">🍊</text>
  <text x="87" y="79" font-size="12" text-anchor="middle">🍉</text>
  <text x="112" y="79" font-size="12" text-anchor="middle">🍍</text>
  <text x="137" y="79" font-size="12" text-anchor="middle">🍑</text>

  <!-- Slot area -->
  <rect x="30" y="120" width="140" height="44" rx="6" fill="rgba(255,255,255,0.15)"/>
  <rect x="36" y="126" width="20" height="28" rx="3" fill="rgba(255,255,255,0.3)"/>
  <rect x="59" y="126" width="20" height="28" rx="3" fill="rgba(255,255,255,0.3)"/>
  <rect x="82" y="126" width="20" height="28" rx="3" fill="rgba(255,255,255,0.3)"/>
  <rect x="105" y="126" width="20" height="28" rx="3" fill="rgba(255,255,255,0.3)"/>
  <rect x="128" y="126" width="20" height="28" rx="3" fill="rgba(255,255,255,0.3)"/>

  <!-- Score UI -->
  <rect x="195" y="24" width="105" height="140" rx="8" fill="rgba(255,255,255,0.1)"/>
  <text x="247" y="46" font-size="9" fill="rgba(255,255,255,0.6)" text-anchor="middle">SCORE</text>
  <text x="247" y="72" font-size="22" font-weight="bold" fill="white" text-anchor="middle">2840</text>
  <text x="200" y="96" font-size="9" fill="rgba(255,255,255,0.6)">🔥 COMBO</text>
  <text x="295" y="96" font-size="9" fill="rgba(255,255,255,0.6)" text-anchor="end">x5</text>
  <text x="200" y="118" font-size="9" fill="rgba(255,255,255,0.6)">⏱️ TIME</text>
  <text x="295" y="118" font-size="9" fill="rgba(255,255,255,0.6)" text-anchor="end">2:34</text>
  <text x="200" y="140" font-size="9" fill="rgba(255,255,255,0.6)">📦 LEFT</text>
  <text x="295" y="140" font-size="9" fill="rgba(255,255,255,0.6)" text-anchor="end">24</text>

  <!-- Card match hint highlight on a top card -->
  <rect x="49" y="56" width="24" height="32" rx="4" fill="none" stroke="#FFD700" stroke-width="2" opacity="0.8"/>
</svg>
